<svg width="211" height="53" viewBox="0 0 211 53" fill="none" xmlns="http://www.w3.org/2000/svg">
<path d="M206.174 15.5895L196.008 16.209C195.882 16.2187 195.755 16.1848 195.651 16.1129C195.546 16.041 195.469 15.9355 195.433 15.8139C195.433 15.7448 193.146 8.28353 192.028 4.6392L188.779 15.764C188.747 15.8921 188.673 16.0057 188.568 16.0867C188.464 16.1677 188.336 16.2115 188.204 16.2109H181.379C181.255 16.2138 181.134 16.1786 181.031 16.1099C180.928 16.0413 180.849 15.9426 180.804 15.8273L179.342 12.2002L177.347 15.8791C177.298 15.9779 177.222 16.0608 177.127 16.1184C177.033 16.176 176.925 16.2061 176.814 16.2051H173.429L166.535 24.027C166.457 24.1137 166.355 24.1758 166.242 24.2057C166.129 24.2356 166.009 24.2321 165.898 24.1955C165.787 24.159 165.689 24.091 165.616 23.9998C165.543 23.9086 165.498 23.7981 165.486 23.6818L162.977 2.88227L157.286 15.8445C157.242 15.9537 157.166 16.0468 157.068 16.1113C156.969 16.1758 156.853 16.2085 156.736 16.2051H143.653C143.537 16.2013 143.424 16.1656 143.327 16.102C143.23 16.0384 143.152 15.9493 143.102 15.8445L141.332 12.0276L139.157 15.9002C139.103 15.9945 139.026 16.0728 138.932 16.1271C138.838 16.1814 138.732 16.2097 138.623 16.209H126.668L68.9958 16.535V51.7412H63.7364L57.5813 27.9322H57.4778V51.7412H52.9224V19.134H59.3517L64.3387 38.6465H64.425V14.6266L126.67 14.9891H138.255L140.85 10.3992C140.906 10.3029 140.987 10.2235 141.084 10.1694C141.181 10.1153 141.291 10.0885 141.402 10.0918C141.513 10.0952 141.621 10.1285 141.715 10.1884C141.809 10.2482 141.884 10.3323 141.934 10.4318L144.065 14.9891H156.341L162.787 0.377265C162.817 0.302876 162.861 0.23517 162.917 0.178154C162.973 0.121138 163.04 0.0759733 163.114 0.0453736C163.188 0.0147739 163.267 -0.000649084 163.347 2.09297e-05C163.427 0.000690943 163.506 0.0174503 163.579 0.0492837C163.677 0.0950178 163.761 0.164787 163.824 0.252025C163.887 0.339262 163.927 0.441097 163.94 0.547976L166.552 22.1914L172.723 15.1943C172.778 15.1292 172.846 15.0771 172.923 15.0416C173.001 15.0061 173.085 14.9882 173.17 14.9891H176.471L178.895 10.4836C178.933 10.4132 178.985 10.351 179.047 10.3008C179.109 10.2505 179.181 10.2131 179.257 10.1908C179.334 10.1685 179.415 10.1617 179.494 10.1708C179.573 10.1799 179.65 10.2047 179.72 10.2438C179.849 10.3063 179.948 10.4173 179.996 10.5526L181.801 14.9891H187.747L191.441 2.31835C191.464 2.24045 191.502 2.16786 191.553 2.10479C191.604 2.04172 191.667 1.98945 191.738 1.95105C191.81 1.91265 191.888 1.88888 191.969 1.88114C192.05 1.8734 192.131 1.88183 192.208 1.90596C192.306 1.93023 192.395 1.97946 192.467 2.04876C192.539 2.11806 192.592 2.20503 192.621 2.30109L196.488 15.0217L206.174 15.5895Z" fill="#414042"/>
<path d="M87.2002 43.9021C87.2002 49.2133 84.5014 52.2054 79.4646 52.2054C74.4278 52.2054 71.9189 49.2133 71.9189 44.0057V42.1318H76.7659V44.3759C76.7659 46.714 77.7978 47.5561 79.4301 47.5561C81.0624 47.5561 82.077 46.714 82.077 44.2953C82.077 41.5966 81.0643 39.8838 77.6942 36.9376C73.4131 33.1571 72.0206 30.5102 72.0206 26.7719C72.0206 21.6487 74.6695 18.6738 79.6545 18.6738C84.6396 18.6738 87.1139 21.6487 87.1139 26.8736V28.2162H82.2669V26.5379C82.2669 24.1998 81.3386 23.3232 79.7063 23.3232C78.074 23.3232 77.1438 24.1998 77.1438 26.4343C77.1438 28.807 78.2102 30.5428 81.5553 33.4659C85.8594 37.2503 87.2002 39.8627 87.2002 43.9021Z" fill="#414042"/>
<path d="M27.5469 22.3929C27.4242 20.5014 26.8464 18.6675 25.8628 17.0472C25.2237 15.9543 24.4039 14.9776 23.4384 14.1586C23.4255 14.1236 23.4011 14.0938 23.3693 14.0742C22.1737 13.0319 20.7831 12.2371 19.2781 11.7361C18.6758 11.5443 18.0582 11.4427 17.4387 11.2892C17.009 11.2374 16.5966 11.1856 16.167 11.1511C15.91 11.1339 15.651 11.1166 15.3998 11.1166C15.1485 11.1166 14.8243 11.1511 14.5405 11.1511C14.3678 11.1684 14.178 11.1684 14.0072 11.2029C13.24 11.3563 12.4421 11.4772 11.6691 11.7016C10.6187 12.0081 9.62546 12.4843 8.72872 13.1114C8.23003 13.4374 7.76969 13.8326 7.30168 14.1932C6.71574 14.7721 6.15944 15.3802 5.63488 16.0153C4.40997 17.614 3.62205 19.5038 3.34855 21.4991C3.29676 21.7925 3.24497 22.1013 3.21045 22.3929V24.2496C3.24497 24.543 3.29676 24.825 3.34855 25.1261C3.65263 27.2351 4.52001 29.223 5.8593 30.8803C6.32347 31.4289 6.85478 31.9103 7.35347 32.4436C8.95419 33.867 10.9076 34.8348 13.0098 35.2459C13.4568 35.3322 13.9382 35.384 14.3851 35.4377L14.5405 35.4875H16.2667C16.353 35.4722 16.4202 35.4549 16.5065 35.4377C16.7309 35.4031 16.9534 35.3859 17.1778 35.3513L17.383 35.2996L17.4003 35.3168C17.4866 35.2996 17.5557 35.2995 17.642 35.2823C18.9598 35.0473 20.2275 34.588 21.3899 33.9243C22.1522 33.4994 22.8606 32.9842 23.4997 32.3898C23.5727 32.3386 23.6413 32.2815 23.705 32.2191C24.9288 31.0824 25.9079 29.7079 26.5821 28.1797C27.262 26.642 27.6079 24.9775 27.5967 23.2963C27.5641 22.9952 27.5641 22.7017 27.5469 22.3929ZM15.1869 31.005C13.9195 30.9944 12.6763 30.6574 11.5771 30.0268C10.9767 29.6936 10.427 29.2764 9.94478 28.7877C9.22006 28.0702 8.64483 27.2161 8.25238 26.2748C7.85993 25.3336 7.65806 24.3238 7.65844 23.304V23.2522C7.68806 21.2188 8.50807 19.2768 9.94478 17.8375C9.94478 17.8329 9.9466 17.8285 9.94984 17.8253C9.95307 17.8221 9.95746 17.8202 9.96204 17.8202C10.4406 17.3424 10.9774 16.9268 11.5598 16.5831H11.5771C12.7 15.9316 13.9749 15.5875 15.2732 15.5857H15.394C16.688 15.6186 17.9553 15.9605 19.0901 16.5831C20.2795 17.2606 21.2724 18.2356 21.9715 19.4125C22.6706 20.5893 23.0518 21.9277 23.0778 23.2963V23.3308C23.0675 25.3344 22.2713 27.2539 20.8605 28.6765C20.3584 29.1919 19.7848 29.6324 19.1572 29.9846H19.14C17.9994 30.6393 16.7091 30.9881 15.394 30.9973L15.1869 31.005Z" fill="#00AEEF"/>
<path d="M41.8324 19.1264H34.0105V50.0361H17.1123C20.9293 43.7947 24.7098 37.5379 28.5095 31.2985C30.6922 27.6714 31.2945 23.7682 30.2971 19.6769C29.386 15.8274 27.2378 12.7834 23.9675 10.5661C20.6972 8.34883 17.074 7.54133 13.1554 8.10908C9.83408 8.54917 6.76088 10.1047 4.43968 12.5206C1.77896 15.1717 0.205441 18.7217 0.0281328 22.4735C-0.142575 25.4657 0.45778 28.2833 1.9884 30.8286C5.99332 37.4804 10.0673 44.0824 14.1067 50.717C14.3829 51.1639 14.6822 51.5245 15.1904 51.6971H15.3822V51.7489H34.6972V51.7316H41.8324C46.9536 51.7316 49.4644 48.8776 49.4644 43.6758V27.19C49.4644 21.9633 46.9536 19.1264 41.8324 19.1264ZM16.253 35.4914H14.5268L14.3714 35.4415C13.9245 35.3897 13.4431 35.3379 12.9962 35.2497C10.8939 34.8386 8.94052 33.8709 7.3398 32.4474C6.8411 31.9142 6.3098 31.4328 5.84563 30.8842C4.50634 29.2269 3.63895 27.239 3.33488 25.13C3.28309 24.8384 3.2313 24.5546 3.19678 24.2534V22.3967C3.2313 22.1052 3.28309 21.7964 3.33488 21.5029C3.60838 19.5076 4.3963 17.6178 5.62121 16.0192C6.14576 15.3841 6.70207 14.7759 7.28801 14.197C7.75218 13.8364 8.21635 13.4413 8.71505 13.1152C9.61178 12.4882 10.605 12.012 11.6554 11.7055C12.4227 11.481 13.2187 11.3602 13.9936 11.2067C14.1643 11.1722 14.3542 11.1722 14.5268 11.155C14.8183 11.155 15.1022 11.1377 15.3861 11.1204C15.67 11.1032 15.902 11.1377 16.1533 11.155C16.583 11.1895 16.9953 11.2413 17.425 11.2931C18.0445 11.4465 18.6621 11.5501 19.2644 11.74C20.7736 12.2371 22.1688 13.0293 23.3691 14.0704C23.4009 14.09 23.4252 14.1197 23.4381 14.1548C24.4037 14.9738 25.2234 15.9505 25.8626 17.0434C26.8462 18.6637 27.4239 20.4976 27.5466 22.3891C27.5639 22.6998 27.5639 22.9913 27.5811 23.3002C27.5928 24.9827 27.247 26.6485 26.5665 28.1874C25.8923 29.7156 24.9133 31.0901 23.6894 32.2268C23.6257 32.2892 23.5571 32.3463 23.4842 32.3975C22.845 32.9919 22.1366 33.5071 21.3743 33.932C20.2119 34.5957 18.9442 35.055 17.6264 35.29C17.5401 35.3072 17.471 35.3073 17.3847 35.3245L17.3674 35.3072L17.168 35.3609C16.9436 35.3955 16.7211 35.4127 16.4966 35.4473C16.4007 35.4588 16.3394 35.476 16.253 35.4914ZM44.3412 43.8983C44.3412 46.2364 43.3611 47.0784 41.7461 47.0784H39.1337V23.7854H41.7461C43.3611 23.7854 44.3412 24.6102 44.3412 26.9483V43.8983Z" fill="#414042"/>
<path d="M105.783 29.785V27.0863C105.783 22.3755 103.721 18.8386 98.7357 18.8386C93.7507 18.8386 91.7041 22.3794 91.7041 27.0863V43.7601C91.7041 48.4708 93.7679 52.0077 98.7357 52.0077C103.704 52.0077 105.783 48.467 105.783 43.7601V40.0313H103.717V43.8982C103.717 47.4044 102.374 50.0014 98.7837 50.0014C95.1931 50.0014 93.8504 47.4044 93.8504 43.8982V26.9482C93.8504 23.4592 95.2084 20.7951 98.7837 20.7951C102.359 20.7951 103.717 23.4592 103.717 26.9482V29.785H105.783Z" fill="white"/>
<path d="M121.56 19.1263V34.444H111.395V19.1263H109.27V51.7335H111.4V36.4005H121.566V51.7335H123.766V19.1263H121.56Z" fill="white"/>
<path d="M140.332 21.0866V19.1263H127.481V51.7335H140.332V49.7732H129.622V36.1549H138.526V34.2119H129.622V21.0789L140.332 21.0866Z" fill="white"/>
<path d="M157.762 29.785V27.0863C157.762 22.3755 155.7 18.8386 150.732 18.8386C145.765 18.8386 143.684 22.3794 143.684 27.0863V43.7601C143.684 48.4708 145.747 52.0077 150.732 52.0077C155.718 52.0077 157.762 48.467 157.762 43.7601V40.0313H155.7V43.8982C155.7 47.4044 154.358 50.0014 150.767 50.0014C147.176 50.0014 145.832 47.4044 145.832 43.8982V26.9482C145.832 23.4592 147.19 20.7951 150.767 20.7951C154.344 20.7951 155.7 23.4592 155.7 26.9482V29.785H157.762Z" fill="white"/>
<path d="M166.942 34.3059L176.243 19.1263H174.008L163.401 36.3525V19.1263H161.253V51.7335H163.401V39.945L165.636 36.4043L174.626 51.7373H176.86L166.942 34.3059Z" fill="white"/>
<path d="M192.934 21.0866V19.1263H180.083V51.7335H192.934V49.7732H182.208V36.1549H191.112V34.2119H182.208V21.0789L192.934 21.0866Z" fill="white"/>
<path d="M210.21 47.8168V42.7473C210.21 39.2047 208.852 36.8167 205.501 36.0763C208.714 35.3378 210.21 33.1378 210.21 29.3209V26.484C210.21 21.8807 208.2 19.1263 203.215 19.1263H196.423V51.7335H198.556V37.1389H201.958C205.689 37.1389 208.062 38.3588 208.062 42.7013V47.8225C208.062 49.5948 208.2 50.7629 208.766 51.7431H211C210.296 50.6536 210.21 49.1594 210.21 47.8168ZM198.556 35.1997V21.0866H203.18C206.721 21.0866 208.062 23.1677 208.062 26.6739V29.7428C208.062 34.1103 205.827 35.1921 202.01 35.1921L198.556 35.1997Z" fill="white"/>
<path d="M15.5 49C14.4992 48.7321 13.586 47.0361 13.1189 46.1894C9.90615 40.4547 6.55791 35.1051 3.31684 29.3742C1.96855 27.0625 1.34802 24.4203 1.53153 21.7722C1.94803 15.8028 6.38403 10.2772 13.1715 9.1666C15.7716 8.77031 18.4346 9.08433 20.8601 10.0732C23.2856 11.0622 25.3772 12.6866 26.8991 14.7636C28.421 16.8405 29.3126 19.2872 29.4736 21.828C29.6345 24.3688 29.0583 26.9025 27.8099 29.1435C24.4617 35.1285 21.1781 40.7186 17.8117 46.6939C17.4736 47.2812 16.6594 48.7874 16 49H15.5ZM16.5278 15.8477C15.3265 15.635 14.0863 15.7993 12.9885 16.3167C11.8906 16.834 10.9925 17.6772 10.4254 18.7232C9.85831 19.7692 9.65188 20.9631 9.83629 22.1306C10.0207 23.2981 10.5863 24.378 11.4504 25.2125C12.3145 26.0471 13.432 26.5926 14.6395 26.7694C15.847 26.9462 17.0813 26.745 18.1622 26.1952C19.243 25.6454 20.1138 24.7758 20.6473 23.7134C21.1808 22.651 21.3491 21.4515 21.1276 20.2901C20.9146 19.187 20.3611 18.1721 19.54 17.3791C18.719 16.5861 17.6688 16.0522 16.5278 15.8477Z" fill="url(#paint0_linear_1098_6420)"/>
<circle cx="15.5" cy="23" r="13" fill="white"/>
<path d="M27.7766 22.9435C27.7766 23.2312 27.767 23.5189 27.7478 23.797C27.7478 23.8334 27.7478 23.868 27.7382 23.9044L27.7267 24.0636C27.7267 24.1154 27.7171 24.1691 27.7113 24.2209L27.6941 24.3782L27.6768 24.5259L27.6538 24.6927C27.6404 24.7963 27.625 24.898 27.6078 25.0015C27.5982 25.0514 27.5905 25.1032 27.5809 25.155L27.5521 25.3084C27.5425 25.3583 27.533 25.4101 27.5215 25.46C27.5099 25.5098 27.5003 25.5616 27.4888 25.6134C27.4773 25.6652 27.4677 25.7131 27.4562 25.7649C27.4447 25.8167 27.4371 25.8493 27.4255 25.8935C27.4255 25.905 27.4255 25.9165 27.4255 25.9261C27.414 25.9702 27.4044 26.0124 27.3929 26.0546C27.3603 26.1831 27.3258 26.3097 27.2894 26.4382C27.2702 26.5034 27.251 26.5686 27.2299 26.63C27.1877 26.77 27.1417 26.9081 27.0937 27.0443C27.0726 27.1095 27.0496 27.1728 27.0266 27.2361V27.2495L26.9575 27.4413C26.9575 27.4528 26.9479 27.4643 26.9441 27.4778C26.8942 27.6063 26.8405 27.7348 26.7868 27.8614L26.7197 28.0148L26.6583 28.151V28.1683C26.6511 28.1813 26.6447 28.1948 26.6391 28.2085C26.6384 28.2143 26.6384 28.2201 26.6391 28.2258C26.62 28.268 26.5989 28.3083 26.5797 28.3486L26.5106 28.4886C26.5114 28.4943 26.5114 28.5001 26.5106 28.5059C26.5106 28.5193 26.4972 28.5346 26.4895 28.55L26.4128 28.7015L26.4013 28.7188C26.3783 28.7667 26.3514 28.8147 26.3265 28.8626C26.3016 28.9106 26.2977 28.9163 26.2824 28.9432C26.2229 29.0525 26.1615 29.1599 26.0906 29.2673C26.0618 29.3172 26.033 29.3671 26.0023 29.4169C25.8201 29.7142 25.6283 30.0039 25.4269 30.2858C25.1312 30.6925 24.8109 31.0806 24.4679 31.4482C23.0315 32.9943 21.2267 34.1511 19.222 34.8105C18.9324 34.9064 18.6466 34.9908 18.3397 35.0637L18.1575 35.1078H18.1479C17.9695 35.15 17.7892 35.1865 17.6089 35.2191L17.4171 35.2517L17.2253 35.2824C17.1025 35.3016 16.9798 35.3169 16.857 35.3322L16.6441 35.3572L16.4772 35.3725L16.2854 35.3879L16.0744 35.4032H15.9229H15.873H15.733H15.6179H15.3206C14.8419 35.4029 14.3635 35.3754 13.8878 35.3207C13.7306 35.3035 13.5752 35.2824 13.4217 35.2594L13.2645 35.2344L12.9595 35.1788L12.8041 35.15C12.5567 35.0983 12.3131 35.0407 12.0695 34.9755C11.9506 34.9429 11.8298 34.9083 11.7108 34.8719C8.75164 33.973 6.22981 32.0108 4.63125 29.3632C4.56732 29.2597 4.50338 29.1542 4.43945 29.0467C4.25787 28.7258 4.091 28.3972 3.93883 28.0609C3.87554 27.9228 3.81608 27.7847 3.75853 27.6446C3.56575 27.1712 3.40241 26.6863 3.26943 26.1927C3.23298 26.0622 3.20038 25.9318 3.16969 25.809C2.94694 24.8663 2.83493 23.9007 2.83594 22.9319C2.83549 22.4112 2.86816 21.891 2.93376 21.3745C2.9348 21.3604 2.9348 21.3463 2.93376 21.3323C2.94527 21.2441 2.9587 21.1558 2.97213 21.0676C3.00282 20.8547 3.04118 20.6437 3.08338 20.4346C3.09872 20.3541 3.11598 20.2754 3.13325 20.1949C3.13325 20.1584 3.15051 20.122 3.15818 20.0855C3.16585 20.0491 3.17928 20.0011 3.18887 19.9589C3.19846 19.9167 3.21572 19.8458 3.23107 19.7921C3.24641 19.7384 3.25216 19.7115 3.26176 19.6732C3.27135 19.6348 3.27902 19.6099 3.28861 19.5792C3.2982 19.5485 3.31163 19.4929 3.32505 19.4488V19.4277C3.33848 19.3855 3.34999 19.3413 3.36341 19.2991C3.39027 19.2147 3.4152 19.1303 3.44205 19.0479C4.28106 16.4887 5.92383 14.2687 8.12597 12.7182L8.14899 12.701C8.62904 12.3637 9.13217 12.0606 9.65467 11.7938C9.7966 11.7228 9.93854 11.6537 10.0843 11.5866C10.1821 11.5406 10.2761 11.4964 10.3816 11.4542H10.3912L10.5715 11.3794L10.6252 11.3564L10.8017 11.2855L11.0203 11.2049L11.1373 11.1627L11.1834 11.1454L11.31 11.1033L11.4615 11.0534L11.7473 10.9632L11.8969 10.921C12.0542 10.8769 12.2134 10.8347 12.3726 10.7964C12.9667 10.6531 13.5706 10.5537 14.1794 10.4991L14.515 10.4741H14.6762H14.8258H15.148H15.5431C15.6831 10.4741 15.8232 10.4741 15.9632 10.4895C18.0268 10.5985 20.031 11.2188 21.7954 12.2945C23.5599 13.3702 25.0292 14.8677 26.0714 16.6522C26.2152 16.8977 26.3514 17.1471 26.478 17.4041L26.5356 17.5192L26.5931 17.64C26.6276 17.7167 26.6641 17.7934 26.6986 17.8721C26.7139 17.9085 26.7312 17.9431 26.7466 17.9795C26.7619 18.016 26.7849 18.0658 26.8022 18.11L26.8425 18.2059L26.9 18.3497C26.9326 18.4303 26.9633 18.5127 26.994 18.5933C27.0093 18.6336 27.0247 18.6758 27.0381 18.716C27.0515 18.7563 27.0688 18.7966 27.0822 18.8388C27.0956 18.881 27.111 18.9213 27.1244 18.9616C27.1378 19.0018 27.1551 19.0517 27.1685 19.0958L27.2146 19.2359L27.2548 19.3701L27.3009 19.5312C27.3105 19.5619 27.3181 19.5945 27.3277 19.6271L27.3507 19.7154C27.3507 19.7461 27.368 19.7748 27.3757 19.8036C27.4025 19.911 27.4294 20.0203 27.4543 20.1277L27.4888 20.2793C27.5003 20.3291 27.5099 20.3809 27.5215 20.4308C27.533 20.4807 27.5425 20.5421 27.5541 20.5977C27.5656 20.6533 27.5713 20.6897 27.579 20.7377C27.5867 20.7856 27.5963 20.8394 27.6058 20.8911C27.6154 20.9429 27.6231 20.9928 27.6308 21.0446C27.6384 21.0964 27.6461 21.1482 27.6519 21.2C27.6672 21.3035 27.6806 21.409 27.6922 21.5126C27.7037 21.6162 27.7209 21.7715 27.7305 21.8962C27.7382 21.9768 27.7439 22.0573 27.7478 22.1379C27.7689 22.4064 27.7766 22.6749 27.7766 22.9435Z" fill="url(#paint1_linear_1098_6420)"/>
<path d="M27.7502 22.1416C27.7502 22.0611 27.7387 21.9786 27.7329 21.8981C27.7214 21.7676 27.7099 21.6391 27.6946 21.5144C27.6792 21.3898 27.6697 21.3054 27.6543 21.2018C27.6543 21.15 27.6409 21.0982 27.6332 21.0464C27.6255 20.9946 27.6159 20.9428 27.6083 20.893C27.6006 20.8431 27.591 20.7894 27.5814 20.7395C27.5718 20.6897 27.5642 20.6456 27.5565 20.5995C27.5488 20.5535 27.5335 20.4883 27.5239 20.4326C27.5143 20.377 27.5028 20.331 27.4913 20.2811L27.4568 20.1296C27.4318 20.0222 27.405 19.9128 27.3781 19.8054C27.3781 19.7767 27.3628 19.7479 27.3532 19.7172L27.334 19.6328C27.3244 19.6002 27.3167 19.5676 27.3071 19.5369L27.2611 19.3758L27.2208 19.2415L27.1748 19.1015C27.1614 19.0574 27.146 19.0133 27.1307 18.9672C27.1153 18.9212 27.1038 18.8848 27.0885 18.8445C27.0731 18.8042 27.0597 18.762 27.0444 18.7217C27.029 18.6814 27.0156 18.6392 27.0002 18.599C26.9696 18.5184 26.9389 18.4359 26.9063 18.3554L26.8487 18.2115L26.8084 18.1156C26.7912 18.0715 26.772 18.0274 26.7528 17.9852C26.7336 17.943 26.7202 17.9142 26.7049 17.8778C26.6703 17.7991 26.6339 17.7224 26.5994 17.6457L26.5418 17.5249L26.4843 17.4098C26.3564 17.154 26.2222 16.904 26.0815 16.6598C25.0389 14.8754 23.5692 13.3781 21.8044 12.3027C20.0396 11.2273 18.0352 10.6075 15.9714 10.499C15.8314 10.499 15.6913 10.4856 15.5513 10.4836H15.1562H14.834H14.6843H14.5232L14.1876 10.5086C13.5761 10.5639 12.9696 10.6646 12.3731 10.8097C12.2139 10.8481 12.0547 10.8903 11.8974 10.9344L11.7478 10.9766L11.462 11.0667L11.3105 11.1166L11.1839 11.1588L11.1378 11.1761L11.0208 11.2183L10.8022 11.2988L10.6257 11.3698L10.572 11.3928L10.3917 11.4676H10.3821C10.2824 11.5098 10.1903 11.5539 10.0848 11.5999C9.93906 11.6671 9.79712 11.7361 9.65518 11.8071C9.12204 12.0778 8.60921 12.3868 8.12073 12.7316L8.08428 12.7565C5.9023 14.304 4.27513 16.5114 3.44257 19.0535C3.41571 19.136 3.39078 19.2204 3.36393 19.3048C3.3505 19.347 3.33899 19.3911 3.32556 19.4333V19.4544C3.31214 19.4985 3.30063 19.5407 3.28912 19.5849C3.27761 19.629 3.27186 19.6462 3.26227 19.6788C3.25268 19.7114 3.24117 19.7575 3.23158 19.7978C3.22199 19.838 3.20281 19.909 3.18938 19.9646C3.17595 20.0203 3.16828 20.049 3.15869 20.0912C3.1491 20.1334 3.14143 20.1641 3.13376 20.2005C3.1165 20.2811 3.09923 20.3597 3.08389 20.4403C3.04169 20.6494 3.00333 20.8604 2.97264 21.0733C2.95922 21.1615 2.94579 21.2497 2.93428 21.338C2.93531 21.352 2.93531 21.3661 2.93428 21.3802C2.75099 22.8601 2.83086 24.3607 3.1702 25.8128C3.20089 25.9452 3.2335 26.0756 3.26994 26.1964C3.40292 26.69 3.56627 27.175 3.75905 27.6484C3.81659 27.7884 3.87605 27.9265 3.93935 28.0646C4.09151 28.4022 4.25838 28.7308 4.43996 29.0505C4.50006 29.1579 4.564 29.2634 4.63177 29.367C6.22769 32.0169 8.75053 33.9799 11.7113 34.8757C11.8303 34.9121 11.9511 34.9466 12.07 34.9793C12.3136 35.0445 12.5572 35.102 12.8046 35.1538L12.96 35.1826L13.265 35.2382L13.4223 35.2631C13.5757 35.2861 13.7311 35.3073 13.8884 35.3245C14.364 35.3791 14.8424 35.4067 15.3211 35.407H15.6184H15.7335H15.8735H15.9234H16.0749L16.2859 35.3916L16.4777 35.3763L16.6446 35.3609L16.8575 35.336C16.9803 35.3207 17.103 35.3053 17.2258 35.2861L17.4176 35.2554L17.6094 35.2229C17.7897 35.1902 17.97 35.1538 18.1484 35.1116H18.1273L18.3095 35.0675C18.6087 34.9946 18.9022 34.9102 19.1918 34.8143C21.9403 33.9112 24.2892 32.0804 25.836 29.6355C25.8839 29.5626 25.93 29.4878 25.976 29.413C26.022 29.3382 26.0355 29.3133 26.0642 29.2634C26.1275 29.156 26.1889 29.0486 26.256 28.9393C26.2714 28.9124 26.2867 28.8856 26.3002 28.8587C26.3136 28.8318 26.3519 28.7628 26.375 28.7148L26.3865 28.6976L26.4632 28.5461C26.4632 28.5307 26.4766 28.5154 26.4843 28.5019C26.485 28.4962 26.485 28.4904 26.4843 28.4847L26.5533 28.3447C26.5725 28.3044 26.5936 28.2641 26.6128 28.2219C26.6121 28.2162 26.6121 28.2104 26.6128 28.2046C26.6184 28.1908 26.6248 28.1774 26.632 28.1644V28.1471L26.6934 28.0109L26.7605 27.8575C26.8142 27.7309 26.8679 27.6024 26.9178 27.4739C26.9178 27.4604 26.9178 27.4489 26.9312 27.4374L27.0002 27.2456V27.2322C27.0233 27.1689 27.0463 27.1056 27.0674 27.0404C27.1153 26.9042 27.1614 26.7661 27.2036 26.6261C27.2247 26.5609 27.2438 26.4956 27.263 26.4343C27.2995 26.3077 27.334 26.1811 27.3666 26.0506C27.3781 26.0084 27.3877 25.9663 27.3992 25.9222C27.3992 25.9222 27.3992 25.901 27.3992 25.8895C27.4107 25.8454 27.4203 25.8032 27.4299 25.761C27.4395 25.7188 27.4529 25.6594 27.4625 25.6095C27.4721 25.5596 27.4855 25.5078 27.4951 25.4561C27.5047 25.4043 27.5162 25.3544 27.5258 25.3045L27.5546 25.1511C27.5546 25.0993 27.5718 25.0475 27.5814 24.9976C27.5987 24.8941 27.614 24.7924 27.6275 24.6888L27.6505 24.522L27.6677 24.3743L27.685 24.217C27.685 24.1652 27.685 24.1115 27.7003 24.0597L27.7119 23.9005C27.7368 23.584 27.7483 23.2637 27.7483 22.9415C27.7751 22.6749 27.7675 22.4063 27.7502 22.1416ZM26.6512 21.2651C26.6761 21.4262 26.6953 21.5911 26.7125 21.7561C26.7375 21.9728 26.7528 22.1896 26.7758 22.4293H21.8445C21.8253 21.8296 21.7869 21.2318 21.7294 20.636C21.668 20.0337 21.5875 19.4333 21.482 18.8368C21.3995 18.363 21.3017 17.8931 21.1885 17.4232C21.1444 17.2314 21.0964 17.0549 21.0485 16.8689C21.1463 16.8689 21.2134 16.8574 21.2806 16.8574H21.599C22.6756 16.8574 23.7523 16.8574 24.829 16.8574C24.8905 16.8509 24.9525 16.8635 25.0067 16.8933C25.0608 16.9231 25.1046 16.9688 25.1321 17.0242C25.5384 17.7074 25.8751 18.4297 26.1371 19.1801C26.3724 19.8578 26.5445 20.5557 26.6512 21.2651ZM24.0426 15.8485C22.9953 15.8485 21.9481 15.8485 20.9008 15.8485C20.8373 15.8581 20.7726 15.8438 20.719 15.8083C20.6655 15.7729 20.6271 15.7188 20.6112 15.6567C20.1316 14.2949 19.3915 13.0395 18.4322 11.9605C20.7441 12.5813 22.7914 13.9372 24.2651 15.8235C24.1914 15.8359 24.1172 15.8442 24.0426 15.8485ZM20.03 16.9993C20.3758 18.18 20.6184 19.3884 20.755 20.611C20.8183 21.1711 20.8586 21.7369 20.8759 22.3047C20.8759 22.3432 20.8727 22.3817 20.8663 22.4198H15.8103V16.8708C15.8831 16.8708 15.9484 16.8555 16.0136 16.8555H19.7634C19.8746 16.8574 19.9801 16.8286 20.03 17.0012V16.9993ZM15.8256 23.4689H20.8413C20.8202 23.8871 20.8107 24.2956 20.778 24.7042C20.778 24.7214 20.778 24.7406 20.778 24.7579C20.672 26.1292 20.4199 27.4853 20.0262 28.8031C20.021 28.841 20.0083 28.8774 19.9889 28.9103C19.9694 28.9433 19.9435 28.9719 19.9127 28.9946C19.882 29.0174 19.8469 29.0337 19.8098 29.0426C19.7726 29.0515 19.734 29.0529 19.6963 29.0467C18.672 29.0467 17.6478 29.0467 16.6273 29.0467H15.8256V23.4689ZM16.9995 12.0488C17.7788 12.6206 18.4145 13.3659 18.8561 14.2258C19.1419 14.7379 19.3836 15.275 19.6694 15.8504H15.8256V11.5386C16.2471 11.6172 16.646 11.7882 16.9937 12.0392L16.9995 12.0488ZM14.7898 29.0236C14.7189 29.0236 14.6537 29.0409 14.598 29.0409H10.8099C10.6794 29.0409 10.6027 29.0275 10.5586 28.8721C10.0765 27.1583 9.81102 25.3907 9.76835 23.6109C9.76589 23.5649 9.76589 23.5188 9.76835 23.4728H14.7764L14.7898 29.0236ZM9.77026 22.4332C9.77026 22.1148 9.79136 21.7983 9.81246 21.4741C9.85626 20.7554 9.93885 20.0396 10.0599 19.3298C10.1989 18.4949 10.4002 17.6717 10.6622 16.8669H14.7822V22.4293L9.77026 22.4332ZM13.6064 12.0507C13.9557 11.7911 14.3599 11.6152 14.7879 11.5367V15.8427H10.9633C11.1244 15.4591 11.2913 15.0908 11.4716 14.7302C11.9895 13.6868 12.6243 12.7431 13.6006 12.0411L13.6064 12.0507ZM12.1218 11.9184C11.5435 12.5507 11.0496 13.2554 10.6526 14.0148C10.3711 14.5487 10.1232 15.0996 9.91028 15.6643C9.89085 15.7004 9.86349 15.7315 9.83026 15.7554C9.79704 15.7794 9.75882 15.7954 9.71848 15.8024C8.62902 15.8024 7.54147 15.8024 6.45777 15.8024C6.42359 15.7955 6.39018 15.7852 6.35803 15.7717C7.29007 14.616 8.43627 13.6508 9.73382 12.9292C10.4902 12.5071 11.2886 12.1651 12.1161 11.9088L12.1218 11.9184ZM3.95277 21.2152C3.95277 21.1845 3.96428 21.1538 3.96812 21.1231C4.20685 19.697 4.70482 18.3266 5.43735 17.0798C5.47098 17.0083 5.52588 16.9489 5.59455 16.9098C5.66321 16.8707 5.74229 16.8537 5.82097 16.8612C6.97181 16.8612 8.12264 16.8612 9.26389 16.8612H9.55928C9.28114 17.8357 9.07913 18.8303 8.95509 19.8361C8.87453 20.4748 8.82274 21.1174 8.79013 21.7542C8.78054 21.9786 8.77095 22.203 8.7652 22.4274H3.81467C3.85879 22.015 3.88372 21.6084 3.94702 21.2056L3.95277 21.2152ZM3.84344 23.7394C3.84344 23.6569 3.84344 23.5725 3.84344 23.4747H8.71916C8.81315 24.4337 8.87261 25.364 9.00496 26.2904C9.1373 27.2168 9.3387 28.1107 9.51324 29.0409H9.12963C8.01332 29.0409 6.89892 29.0409 5.78261 29.0409C5.73256 29.0411 5.68305 29.0306 5.6374 29.0101C5.59174 28.9896 5.551 28.9596 5.51791 28.922C4.55811 27.3471 3.98251 25.5684 3.83769 23.7298L3.84344 23.7394ZM6.29089 30.069C6.34235 30.0606 6.39421 30.0548 6.44626 30.0517C7.51782 30.0517 8.59001 30.0517 9.66285 30.0517C9.79328 30.0517 9.87384 30.0728 9.92563 30.2148C10.4053 31.5896 11.1509 32.8566 12.1199 33.9435C9.81512 33.2931 7.77366 31.9335 6.28514 30.0575L6.29089 30.069ZM14.786 34.3751C14.1726 34.2423 13.6086 33.9406 13.1576 33.5042C12.141 32.5682 11.508 31.3829 11.0017 30.1189C11.0017 30.1074 11.0017 30.0882 11.0113 30.0632H14.786V34.3751ZM17.4713 33.4774C17.0519 33.8857 16.5369 34.1825 15.9733 34.3405C15.9273 34.354 15.8774 34.3559 15.8122 34.3674V30.0479H19.5773C19.5869 30.0671 19.6023 30.0844 19.5984 30.0939C19.1036 31.3522 18.4725 32.528 17.4732 33.4659L17.4713 33.4774ZM18.4553 33.9838C19.4795 32.9039 20.1547 31.6322 20.6783 30.2666C20.7052 30.1994 20.7953 30.1093 20.8567 30.1093C21.5875 30.1093 22.3183 30.1093 23.0586 30.1093H24.2785C24.0532 30.4618 23.7838 30.7841 23.4768 31.0683C22.1284 32.34 19.7557 33.7785 18.4572 33.9723L18.4553 33.9838ZM26.6454 24.6773C26.4055 26.1458 25.8984 27.5578 25.1493 28.8434C25.1187 28.9104 25.0678 28.9661 25.0038 29.0026C24.9397 29.0391 24.8658 29.0545 24.7926 29.0467C24.1788 29.0467 23.565 29.0467 22.9512 29.0467H21.0447C21.4513 27.6114 21.6996 26.1359 21.785 24.6466C21.8119 24.263 21.8291 23.866 21.8407 23.4747H26.7797C26.7375 23.8698 26.7125 24.2707 26.6473 24.6658L26.6454 24.6773Z" fill="#00AEEF"/>
<path d="M13.4257 17.1528C12.2748 16.8344 12.1521 16.8804 11.7972 17.195C11.4424 17.5096 10.2532 19.6885 9.14263 19.8093C8.03207 19.9302 7.41638 19.9282 7.41638 20.6418C7.41638 21.3553 8.24114 22.1091 8.79546 21.7523C9.34979 21.3956 10.0249 21.3956 10.1036 21.6334C10.1822 21.8712 10.1036 22.5061 9.66818 22.5061C9.23278 22.5061 4.87302 22.8264 3.1084 20.1776C3.79957 17.1627 5.58478 14.5116 8.11839 12.7374C8.82615 12.6549 9.87534 12.6837 10.3031 13.4643C10.9763 14.6938 11.849 14.9719 12.1655 14.807C12.482 14.642 15.1347 13.777 15.2766 14.8473C15.4185 15.9176 14.5765 17.4693 13.4257 17.1528Z" fill="#9FCF78"/>
<path d="M12.2445 26.0392C12.5184 26.0804 12.7758 26.1958 12.9887 26.373C13.2591 26.5993 13.263 27.215 13.3378 27.6236C13.497 28.4963 13.4509 28.5615 13.4912 29.4745C13.5315 30.3875 13.5967 31.6151 13.8019 31.9334C14.0072 32.2518 14.6018 32.7256 15.0372 32.7256C15.4726 32.7256 15.9502 32.0121 15.9502 31.734C15.9502 31.4558 16.5448 28.761 16.9418 28.3639C17.3389 27.9669 18.5281 26.818 18.131 26.302C17.734 25.7861 16.9802 24.9594 16.6637 25.1128C16.3472 25.2662 15.8159 24.6295 15.5378 23.9351C15.2597 23.2408 13.1594 23.1295 12.7892 23.329C12.419 23.5285 11.5482 23.8431 11.4293 24.1998C11.3113 24.6396 11.3113 25.1027 11.4293 25.5425C11.506 25.8033 11.9433 25.9625 12.2445 26.0392Z" fill="#9FCF78"/>
<path d="M27.1881 19.1667C26.8985 19.1667 26.5379 19.1667 26.137 19.1667C24.5527 19.1667 22.3488 19.1207 21.4819 18.8272C21.343 18.7973 21.2189 18.72 21.1309 18.6086C21.0325 18.4225 20.9859 18.2134 20.996 18.0032C21.0061 17.793 21.0726 17.5894 21.1884 17.4136C21.3079 17.21 21.4452 17.0174 21.5989 16.8382L21.6085 16.8267C21.9249 16.4431 23.7893 16.9015 24.662 16.8267C25.0955 16.7883 25.6364 16.702 26.0718 16.6349C26.2137 16.8804 26.348 17.1304 26.4746 17.3849L26.5321 17.4999L26.5897 17.6208C26.6242 17.6975 26.6607 17.7742 26.6952 17.8529C26.7105 17.8893 26.7278 17.9238 26.7431 17.9603C26.7585 17.9967 26.7815 18.0466 26.7988 18.0907L26.839 18.1866L26.8966 18.3305C26.9292 18.411 26.9599 18.4935 26.9906 18.574C27.0059 18.6143 27.0212 18.6565 27.0347 18.6968C27.0481 18.7371 27.0654 18.7774 27.0788 18.8196C27.0922 18.8618 27.1076 18.902 27.121 18.9423C27.1344 18.9826 27.1517 19.0325 27.1651 19.0766L27.1881 19.1667Z" fill="#9FCF78"/>
<path d="M27.7768 22.9434C27.7768 23.2311 27.7672 23.5188 27.748 23.7969C27.748 23.8333 27.748 23.8679 27.7384 23.9043L27.7269 24.0635C27.7269 24.1153 27.7173 24.169 27.7116 24.2208L27.6943 24.3781L27.6771 24.5258L27.654 24.6926C27.6406 24.7962 27.6253 24.8979 27.608 25.0014C27.5984 25.0513 27.5908 25.1031 27.5812 25.1549L27.5524 25.3083C27.5428 25.3582 27.5332 25.41 27.5217 25.4599C27.5102 25.5097 27.5006 25.5615 27.4891 25.6133C27.4776 25.6651 27.468 25.713 27.4565 25.7648C27.445 25.8166 27.4373 25.8492 27.4258 25.8933C27.4258 25.9049 27.4258 25.9164 27.4258 25.926C27.4143 25.9701 27.4047 26.0123 27.3932 26.0545C27.3606 26.183 27.3261 26.3096 27.2896 26.4381C27.2704 26.5033 27.2513 26.5685 27.2302 26.6299C27.188 26.7699 27.1419 26.908 27.094 27.0442C27.0729 27.1094 27.0499 27.1727 27.0268 27.236V27.2494L26.9578 27.4412C26.9578 27.4527 26.9482 27.4642 26.9444 27.4777C26.8945 27.6062 26.8408 27.7347 26.7871 27.8613C26.7334 27.9879 26.6969 28.0665 26.6509 28.1682C26.6437 28.1812 26.6373 28.1947 26.6317 28.2084C26.5876 28.3024 26.5435 28.4003 26.4955 28.4885V28.5058C25.9622 29.5793 25.2767 30.5702 24.4605 31.4481C24.36 31.4633 24.2579 31.4633 24.1574 31.4481C23.9702 31.4125 23.7956 31.3285 23.651 31.2045C23.5971 31.1601 23.5477 31.1107 23.5034 31.0568C23.2857 30.7773 23.1419 30.4475 23.0852 30.0978C23.0164 29.749 22.9804 29.3945 22.9778 29.039C22.9433 27.5045 23.2809 25.69 22.9394 25.0782C22.7476 24.7387 22.3237 24.6428 21.8116 24.6389C21.4725 24.6428 21.1339 24.6639 20.797 24.7022C20.1045 24.7655 19.4313 24.825 19.0707 24.591C18.8682 24.4775 18.6972 24.3153 18.5733 24.119C18.4494 23.9227 18.3764 23.6986 18.361 23.467C18.3451 23.1176 18.382 22.7677 18.4703 22.4293C18.5183 22.2145 18.5854 21.9786 18.6622 21.7216C18.9173 20.8987 19.9012 20.6609 20.772 20.6206C21.097 20.6069 21.4225 20.6146 21.7464 20.6436C22.0706 20.6724 22.2835 20.7088 22.2835 20.7088C22.2835 20.7088 25.3965 21.0809 26.6682 21.2727L26.9386 21.3149C27.1304 21.3475 27.4277 21.5528 27.75 21.9057C27.7576 21.9862 27.7634 22.0668 27.7672 22.1474C27.7691 22.4063 27.7768 22.6748 27.7768 22.9434Z" fill="#9FCF78"/>
<path d="M15.296 34.4268C21.6381 34.4268 26.7794 29.2854 26.7794 22.9433C26.7794 16.6012 21.6381 11.4598 15.296 11.4598C8.95382 11.4598 3.8125 16.6012 3.8125 22.9433C3.8125 29.2854 8.95382 34.4268 15.296 34.4268Z" fill="url(#paint2_linear_1098_6420)"/>
<path opacity="0.2" d="M27.7921 22.9202C27.7921 23.208 27.7825 23.4957 27.7633 23.7738C27.7633 23.8083 27.7633 23.8448 27.7537 23.8812C27.7441 23.9176 27.7537 23.9867 27.7403 24.0404C27.7268 24.0941 27.7307 24.1459 27.7268 24.1977L27.7096 24.3549L27.6923 24.5026L27.6693 24.6695C27.6559 24.7731 27.6405 24.8747 27.6213 24.9783C27.6213 25.0282 27.6041 25.08 27.5964 25.1318L27.5676 25.2852C27.558 25.3351 27.5485 25.3869 27.5369 25.4367C27.5254 25.4866 27.5159 25.5384 27.5043 25.5902C27.4928 25.642 27.4832 25.6899 27.4717 25.7417C27.4602 25.7935 27.4506 25.8261 27.441 25.8702C27.4387 25.8813 27.4355 25.8922 27.4315 25.9028C27.4219 25.9469 27.4123 25.9891 27.4008 26.0313C27.3682 26.1598 27.3336 26.2864 27.2953 26.415C27.2774 26.4802 27.2582 26.5441 27.2377 26.6068C27.1955 26.7449 27.1495 26.8849 27.1015 27.0211C27.0804 27.0844 27.0574 27.1496 27.0344 27.2129V27.2263L26.9654 27.4181C26.9654 27.4315 26.9558 27.443 26.95 27.4546C26.9002 27.5824 26.8484 27.7103 26.7947 27.8382C26.7716 27.89 26.7486 27.9398 26.7275 27.9916L26.6642 28.1278V28.1431L26.645 28.1853V28.2026L26.5875 28.3253L26.5185 28.4654V28.4826L26.4954 28.5267C26.4705 28.5766 26.4456 28.6284 26.4187 28.6783C26.4163 28.6844 26.413 28.6902 26.4091 28.6955L26.3343 28.8394L26.2902 28.92C26.2307 29.0293 26.1694 29.1367 26.0984 29.2441C26.0696 29.294 26.0389 29.3438 26.0082 29.3937C25.828 29.691 25.6342 29.9806 25.4328 30.2607C23.8899 32.3824 21.7194 33.9658 19.2279 34.7873C18.9383 34.8832 18.6429 34.9676 18.3456 35.0405L18.1538 35.0846C17.9754 35.1249 17.7951 35.1633 17.6148 35.1978L17.423 35.2285L17.2312 35.2591L16.8629 35.309L16.65 35.334L16.4851 35.3493L16.2932 35.3647L16.0823 35.38H15.9307H15.8789H15.7408H15.6258H15.3285C14.8497 35.3797 14.3713 35.3522 13.8957 35.2975C13.7384 35.2803 13.583 35.2591 13.4296 35.2361L13.2723 35.2112L12.9673 35.1575L12.812 35.1268C12.5645 35.075 12.319 35.0175 12.0773 34.9523C11.9565 34.9197 11.8376 34.8851 11.7187 34.8487C10.4579 34.4685 9.26589 33.8896 8.1875 33.1339L8.31601 33.1531C8.46946 33.1787 8.62482 33.1998 8.7821 33.2164C9.25775 33.2711 9.73612 33.2986 10.2149 33.2989H10.376H10.5122H10.6273H10.7673H10.8172H10.9687L11.1797 33.2855L11.3715 33.2701L11.5364 33.2529L11.7513 33.2298C11.874 33.2145 11.9968 33.1972 12.1176 33.1781L12.3094 33.1474L12.5012 33.1148C12.6815 33.0822 12.8618 33.0438 13.0402 33.0035H13.0498L13.232 32.9613C13.5312 32.8865 13.8247 32.8021 14.1143 32.7081C15.3361 32.3056 16.4883 31.7168 17.5304 30.9627L14.5248 27.7557L15.035 22.316L21.0884 26.9865C21.1172 26.9386 21.144 26.8887 21.1709 26.8388L21.215 26.7583L21.2898 26.6164C21.2908 26.61 21.2908 26.6035 21.2898 26.5972C21.3167 26.5473 21.3416 26.4974 21.3665 26.4456C21.3753 26.4316 21.383 26.4168 21.3895 26.4015V26.3862L21.4586 26.2462L21.5161 26.1234L21.5257 26.1042L21.5449 26.064V26.0486L21.6082 25.9124C21.6293 25.8606 21.6523 25.8088 21.6753 25.759C21.729 25.6305 21.7808 25.5039 21.8307 25.3754C21.8307 25.3638 21.8307 25.3523 21.846 25.3389L21.9151 25.1471V25.1318C21.9381 25.0685 21.9611 25.0052 21.9822 24.94C22.0302 24.8019 22.0762 24.6638 22.1184 24.5237C22.1389 24.4585 22.1581 24.3946 22.176 24.3319C22.2143 24.2053 22.2488 24.0807 22.2814 23.9483C22.293 23.9042 22.3025 23.862 22.3121 23.8198C22.313 23.8083 22.313 23.7968 22.3121 23.7853C22.3217 23.7431 22.3332 23.7009 22.3428 23.6568C22.3524 23.6127 22.3658 23.557 22.3754 23.5052C22.385 23.4534 22.3985 23.4055 22.408 23.3537C22.4176 23.3019 22.4291 23.2521 22.4387 23.2003L22.4675 23.0468C22.4675 22.997 22.4848 22.9452 22.4924 22.8934C22.5116 22.7917 22.527 22.6882 22.5404 22.5865L22.5634 22.4196L22.5807 22.27L22.5979 22.1146C22.5979 22.0609 22.6075 22.0092 22.6114 21.9554C22.6152 21.9017 22.6209 21.85 22.6248 21.7982C22.6286 21.7464 22.6248 21.7253 22.6248 21.6888C22.644 21.4075 22.6536 21.1237 22.6536 20.8372C22.6536 20.5668 22.644 20.3002 22.6267 20.0335C22.6267 19.953 22.6209 19.8724 22.6094 19.7919C22.5998 19.6614 22.5864 19.5329 22.5711 19.4083C22.5557 19.2836 22.5461 19.2011 22.5308 19.0975L22.5078 18.9422L22.4848 18.7887C22.4752 18.7369 22.4675 18.6852 22.4579 18.6334C22.4483 18.5816 22.4406 18.5413 22.4311 18.4953C22.4215 18.4492 22.41 18.384 22.3985 18.3284C22.3869 18.2728 22.3793 18.2267 22.3678 18.1769L22.3332 18.0253C22.3083 17.916 22.2814 17.8086 22.2546 17.7012C22.2546 17.6705 22.2393 17.6417 22.2297 17.6129L22.2066 17.5228L22.1798 17.4269C22.1644 17.3732 22.1491 17.3195 22.1318 17.2677C22.1146 17.2159 22.1069 17.1775 22.0916 17.1334C22.0762 17.0893 22.0628 17.0394 22.0474 16.9915C22.034 16.9474 22.0187 16.9033 22.0033 16.8592C21.988 16.815 21.9765 16.7767 21.9611 16.7345C21.9458 16.6923 21.9324 16.6539 21.917 16.6117L21.8729 16.4909C21.8422 16.4084 21.8115 16.3278 21.7789 16.2473L21.7214 16.1034L21.6811 16.0056C21.6638 15.9634 21.6447 15.9193 21.6255 15.8771L21.5775 15.7678C21.543 15.691 21.5065 15.6143 21.472 15.5357L21.4145 15.4168L21.3569 15.2998C21.2284 15.0447 21.0942 14.7934 20.9503 14.5479C20.0373 12.991 18.7987 11.6498 17.3194 10.6158C19.1294 10.9145 20.8513 11.6081 22.363 12.6473C23.8746 13.6866 25.1388 15.046 26.0658 16.629C26.2096 16.8764 26.3439 17.1258 26.4724 17.3809L26.53 17.4979L26.5875 17.6187C26.622 17.6954 26.6585 17.7721 26.693 17.8508C26.7083 17.8872 26.7256 17.9218 26.741 17.9582C26.7563 17.9946 26.7774 18.0445 26.7966 18.0886L26.8369 18.1845L26.8944 18.3284C26.927 18.4089 26.9577 18.4914 26.9884 18.572C27.0037 18.6123 27.0172 18.6525 27.0325 18.6947C27.0478 18.7369 27.0632 18.7753 27.0766 18.8175C27.09 18.8597 27.1054 18.9 27.1188 18.9403C27.1322 18.9805 27.1495 19.0285 27.1629 19.0745C27.1783 19.1205 27.1936 19.1685 27.207 19.2145C27.2205 19.2606 27.2358 19.3047 27.2473 19.3488C27.2588 19.3929 27.2799 19.4562 27.2953 19.5099C27.3106 19.5636 27.3125 19.5732 27.3221 19.6039L27.3451 19.694C27.3547 19.7228 27.3624 19.7535 27.3701 19.7823C27.3969 19.8897 27.4238 19.9971 27.4487 20.1064L27.4832 20.258C27.4928 20.3078 27.5043 20.3596 27.5139 20.4095C27.5235 20.4594 27.5369 20.5207 27.5465 20.5764C27.5561 20.632 27.5638 20.6684 27.5734 20.7145C27.583 20.7605 27.5907 20.818 27.6002 20.8698L27.6233 21.0233L27.6463 21.1786C27.6616 21.2822 27.675 21.3877 27.6866 21.4913C27.6981 21.5948 27.7134 21.7502 27.7249 21.8749C27.7249 21.9535 27.7383 22.036 27.7422 22.1166C27.7825 22.3832 27.7921 22.6517 27.7921 22.9202Z" fill="#231F20"/>
<path d="M14.4981 27.7481C14.925 27.7481 15.2711 27.402 15.2711 26.9751C15.2711 26.5482 14.925 26.2021 14.4981 26.2021C14.0712 26.2021 13.7251 26.5482 13.7251 26.9751C13.7251 27.402 14.0712 27.7481 14.4981 27.7481Z" fill="url(#paint3_linear_1098_6420)"/>
<path d="M14.5269 22.6787H14.5115C14.4172 22.6787 14.3408 22.7551 14.3408 22.8494V26.8045C14.3408 26.8987 14.4172 26.9752 14.5115 26.9752H14.5269C14.6212 26.9752 14.6976 26.8987 14.6976 26.8045V22.8494C14.6976 22.7551 14.6212 22.6787 14.5269 22.6787Z" fill="white"/>
<path d="M14.498 24.8287C15.2226 24.8287 15.8099 24.2414 15.8099 23.5168C15.8099 22.7922 15.2226 22.2048 14.498 22.2048C13.7734 22.2048 13.186 22.7922 13.186 23.5168C13.186 24.2414 13.7734 24.8287 14.498 24.8287Z" fill="url(#paint4_linear_1098_6420)"/>
<defs>
<linearGradient id="paint0_linear_1098_6420" x1="15.5" y1="9" x2="15.5" y2="49" gradientUnits="userSpaceOnUse">
<stop stop-color="#007AFF"/>
<stop offset="1" stop-color="#3097CB" stop-opacity="0"/>
</linearGradient>
<linearGradient id="paint1_linear_1098_6420" x1="2.81676" y1="22.9435" x2="27.7766" y2="22.9435" gradientUnits="userSpaceOnUse">
<stop stop-color="#2BC4F3"/>
<stop offset="0.5" stop-color="#00AEEE"/>
<stop offset="1" stop-color="#0095DA"/>
</linearGradient>
<linearGradient id="paint2_linear_1098_6420" x1="-4.99909" y1="5.33737" x2="28.4059" y2="34.3155" gradientUnits="userSpaceOnUse">
<stop offset="0.04" stop-color="white" stop-opacity="0.5"/>
<stop offset="1" stop-color="white" stop-opacity="0"/>
</linearGradient>
<linearGradient id="paint3_linear_1098_6420" x1="13.7251" y1="26.9751" x2="15.273" y2="26.9751" gradientUnits="userSpaceOnUse">
<stop stop-color="#DA2128"/>
<stop offset="0.52" stop-color="#ED6C30"/>
<stop offset="1" stop-color="#F05123"/>
</linearGradient>
<linearGradient id="paint4_linear_1098_6420" x1="13.9667" y1="22.8723" x2="15.6373" y2="24.892" gradientUnits="userSpaceOnUse">
<stop stop-color="#FFF33B"/>
<stop offset="0.04" stop-color="#FEE72E"/>
<stop offset="0.12" stop-color="#FED51B"/>
<stop offset="0.2" stop-color="#FDCA10"/>
<stop offset="0.28" stop-color="#FDC70C"/>
<stop offset="0.67" stop-color="#F3903F"/>
<stop offset="0.89" stop-color="#ED683C"/>
<stop offset="1" stop-color="#E93E3A"/>
</linearGradient>
</defs>
</svg>
