<svg width="311" height="171" viewBox="0 0 311 171" fill="none" xmlns="http://www.w3.org/2000/svg">
<path fill-rule="evenodd" clip-rule="evenodd" d="M65.5591 170.385C65.5591 170.385 57.9358 164.435 47.8496 154.361L65.6192 134.979L83.3313 154.298C73.2141 164.41 65.5591 170.385 65.5591 170.385Z" fill="#393E41"/>
<path fill-rule="evenodd" clip-rule="evenodd" d="M1.87526 76.6349C-5.99954 47.2081 11.2575 9.88262 47.4262 0.423988L64.6582 19.2196L82.2082 0.0772705C119.321 8.93356 137.121 46.8345 129.146 76.6349C124.75 93.0611 115.884 108.519 106.131 121.742C102.137 127.157 97.9939 132.196 93.9485 136.774L80.9371 122.582L78.5526 119.981L65.5703 105.821L52.5881 119.981L50.1421 122.649L37.1313 136.841C33.0852 132.266 28.9404 127.228 24.9434 121.814C21.7484 117.486 18.6477 112.919 15.7674 108.156L29.4277 93.5536C32.0467 98.3071 34.9983 102.946 38.149 107.41L51.4634 92.8876L64.9869 78.137L47.8496 59.4448C54.5417 52.7607 60.1497 47.8921 63.1661 45.3723L42.543 22.8298C24.0562 32.7625 15.8559 54.2022 20.2798 71.3699L5.37833 87.2988C4.0205 83.7998 2.84018 80.2407 1.87526 76.6349ZM66.8926 44.4952C69.5078 46.6389 75.7234 51.9034 83.3313 59.5073L66.1659 78.2303L79.6773 92.8876L92.9241 107.336C100.758 96.2241 107.354 84.0351 110.658 71.6875C115.429 53.857 106.483 31.2837 86.4607 21.8116L87.0794 22.4296L66.8926 44.4952Z" fill="url(#paint0_linear_402_40)"/>
<path fill-rule="evenodd" clip-rule="evenodd" d="M204.332 9.4624L195.647 44.8578H183.547L178.677 23.1687L173.706 44.8578H161.607L153.021 9.4624H163.665L167.782 33.6618L173.355 9.4624H184.149L189.572 33.461L193.689 9.4624H204.332ZM222.616 17.3448V23.1185H233.912V30.5992H222.616V36.9754H235.418V44.8578H212.775V9.4624H235.418V17.3448H222.616ZM272.062 29.7959C270.857 28.1893 269.217 27.1517 267.141 26.6831C268.949 26.1811 270.388 25.2439 271.459 23.8716C272.564 22.4658 273.116 20.7253 273.116 18.6501C273.116 15.7382 272.078 13.4789 270.003 11.8723C267.961 10.2657 265.133 9.4624 261.518 9.4624H244.549V44.8578H262.071C265.819 44.8578 268.731 44.0043 270.806 42.2973C272.882 40.5903 273.919 38.2306 273.919 35.2182C273.919 33.1765 273.3 31.369 272.062 29.7959ZM259.359 23.5201H254.389V17.2946H259.359C261.836 17.2946 263.075 18.3489 263.075 20.4576C263.075 22.4993 261.836 23.5201 259.359 23.5201ZM263.828 33.8124C263.828 35.8876 262.589 36.9252 260.112 36.9252H254.389V30.4988H260.062C261.267 30.4988 262.188 30.7833 262.824 31.3523C263.493 31.9213 263.828 32.7413 263.828 33.8124ZM202.433 100.391C205.211 101.931 208.257 102.701 211.57 102.701C214.884 102.701 217.93 101.931 220.708 100.391C223.486 98.8182 225.678 96.6593 227.285 93.9147C228.891 91.1367 229.695 88.0071 229.695 84.5262C229.695 81.0452 228.891 77.9324 227.285 75.1878C225.678 72.4097 223.486 70.2509 220.708 68.7112C217.963 67.1716 214.917 66.4017 211.57 66.4017C208.257 66.4017 205.211 67.1716 202.433 68.7112C199.655 70.2509 197.445 72.4097 195.805 75.1878C194.199 77.9324 193.395 81.0452 193.395 84.5262C193.395 88.0071 194.199 91.1367 195.805 93.9147C197.445 96.6593 199.655 98.8182 202.433 100.391ZM217.494 91.1032C216.055 92.7433 214.08 93.5633 211.57 93.5633C209.026 93.5633 207.035 92.76 205.596 91.1534C204.156 89.5133 203.437 87.3042 203.437 84.5262C203.437 81.7146 204.156 79.5056 205.596 77.899C207.035 76.2589 209.026 75.4389 211.57 75.4389C214.08 75.4389 216.055 76.2589 217.494 77.899C218.967 79.5056 219.704 81.7146 219.704 84.5262C219.704 87.2708 218.967 89.4631 217.494 91.1032ZM184.702 102.349V66.954H174.861V80.2586H162.862V66.954H153.021V102.349H162.862V88.141H174.861V102.349H184.702ZM251.741 102.701C247.624 102.701 244.243 101.73 241.599 99.7889C238.955 97.8141 237.532 95.0025 237.331 91.3542H247.825C247.925 92.5926 248.293 93.4963 248.929 94.0654C249.565 94.6344 250.385 94.9189 251.389 94.9189C252.293 94.9189 253.029 94.7013 253.598 94.2662C254.201 93.7976 254.502 93.1616 254.502 92.3583C254.502 91.3207 254.017 90.5174 253.046 89.9484C252.075 89.3794 250.502 88.7435 248.327 88.0406C246.017 87.2708 244.143 86.5344 242.704 85.8315C241.298 85.0952 240.059 84.0408 238.988 82.6685C237.951 81.2628 237.432 79.4386 237.432 77.1961C237.432 74.9201 238.001 72.9787 239.139 71.3721C240.277 69.7321 241.85 68.4937 243.858 67.6569C245.866 66.8201 248.143 66.4017 250.686 66.4017C254.803 66.4017 258.083 67.3724 260.527 69.3137C263.004 71.2215 264.326 73.9159 264.493 77.3969H253.799C253.766 76.3258 253.431 75.5225 252.795 74.987C252.192 74.4515 251.406 74.1837 250.435 74.1837C249.699 74.1837 249.096 74.4013 248.628 74.8364C248.159 75.2715 247.925 75.8907 247.925 76.694C247.925 77.3634 248.176 77.9492 248.678 78.4512C249.214 78.9198 249.866 79.3382 250.636 79.7064C251.406 80.0411 252.544 80.4762 254.05 81.0117C256.293 81.7816 258.134 82.5514 259.573 83.3212C261.045 84.0576 262.301 85.1119 263.338 86.4842C264.409 87.823 264.945 89.5301 264.945 91.6052C264.945 93.7139 264.409 95.605 263.338 97.2785C262.301 98.9521 260.778 100.274 258.769 101.245C256.795 102.215 254.452 102.701 251.741 102.701ZM300.447 74.7862V66.954H271.829V74.7862H281.167V102.349H291.008V74.7862H300.447Z" fill="url(#paint1_linear_402_40)"/>
<path d="M194.341 125.253V160.648H184.501V141.118L177.823 160.648H169.59L162.862 140.968V160.648H153.021V125.253H164.92L173.807 148.248L182.493 125.253H194.341Z" fill="#393E41"/>
<path d="M221.18 161C217.866 161 214.82 160.23 212.042 158.69C209.264 157.117 207.055 154.958 205.415 152.214C203.809 149.436 203.005 146.306 203.005 142.825C203.005 139.344 203.809 136.231 205.415 133.487C207.055 130.709 209.264 128.55 212.042 127.01C214.82 125.471 217.866 124.701 221.18 124.701C224.527 124.701 227.573 125.471 230.317 127.01C233.096 128.55 235.288 130.709 236.894 133.487C238.501 136.231 239.304 139.344 239.304 142.825C239.304 146.306 238.501 149.436 236.894 152.214C235.288 154.958 233.096 157.117 230.317 158.69C227.539 160.23 224.494 161 221.18 161ZM221.18 151.862C223.69 151.862 225.665 151.042 227.104 149.402C228.577 147.762 229.313 145.57 229.313 142.825C229.313 140.014 228.577 137.805 227.104 136.198C225.665 134.558 223.69 133.738 221.18 133.738C218.636 133.738 216.645 134.558 215.205 136.198C213.766 137.805 213.047 140.014 213.047 142.825C213.047 145.603 213.766 147.812 215.205 149.452C216.645 151.059 218.636 151.862 221.18 151.862Z" fill="#393E41"/>
<path d="M261.35 161C257.233 161 253.853 160.029 251.209 158.088C248.565 156.113 247.142 153.302 246.941 149.653H257.434C257.535 150.892 257.903 151.795 258.539 152.364C259.175 152.933 259.995 153.218 260.999 153.218C261.903 153.218 262.639 153 263.208 152.565C263.81 152.097 264.112 151.461 264.112 150.657C264.112 149.62 263.626 148.817 262.656 148.248C261.685 147.679 260.112 147.043 257.936 146.34C255.627 145.57 253.752 144.833 252.313 144.131C250.907 143.394 249.669 142.34 248.598 140.968C247.56 139.562 247.042 137.738 247.042 135.495C247.042 133.219 247.611 131.278 248.749 129.671C249.887 128.031 251.46 126.793 253.468 125.956C255.476 125.119 257.752 124.701 260.296 124.701C264.413 124.701 267.693 125.671 270.136 127.613C272.613 129.521 273.935 132.215 274.103 135.696H263.409C263.375 134.625 263.041 133.822 262.405 133.286C261.802 132.751 261.016 132.483 260.045 132.483C259.309 132.483 258.706 132.7 258.238 133.135C257.769 133.571 257.535 134.19 257.535 134.993C257.535 135.662 257.786 136.248 258.288 136.75C258.823 137.219 259.476 137.637 260.246 138.005C261.016 138.34 262.154 138.775 263.66 139.311C265.902 140.081 267.743 140.85 269.183 141.62C270.655 142.357 271.91 143.411 272.948 144.783C274.019 146.122 274.555 147.829 274.555 149.904C274.555 152.013 274.019 153.904 272.948 155.578C271.91 157.251 270.387 158.573 268.379 159.544C266.404 160.515 264.062 161 261.35 161Z" fill="#393E41"/>
<path d="M310.056 125.253V133.085H300.618V160.648H290.777V133.085H281.439V125.253H310.056Z" fill="#393E41"/>
<defs>
<linearGradient id="paint0_linear_402_40" x1="-6.62228e-06" y1="4.61858e-06" x2="131" y2="137" gradientUnits="userSpaceOnUse">
<stop stop-color="#009AFF"/>
<stop offset="1" stop-color="#1966FF"/>
</linearGradient>
<linearGradient id="paint1_linear_402_40" x1="153.021" y1="9.40973" x2="230.577" y2="143.275" gradientUnits="userSpaceOnUse">
<stop stop-color="#009AFF"/>
<stop offset="1" stop-color="#1966FF"/>
</linearGradient>
</defs>
</svg>
