<svg width="614" height="93" viewBox="0 0 614 93" fill="none" xmlns="http://www.w3.org/2000/svg">
<path fill-rule="evenodd" clip-rule="evenodd" d="M230.395 32.955C231.184 33.7581 232.482 33.8522 233.282 33.0598L236.731 29.6445C237.475 28.9079 237.482 27.7017 236.704 27.0016C235.149 25.6034 233.474 24.3635 231.622 23.3572C230.399 22.6599 228.863 22.1025 227.035 21.6699C225.215 21.1987 223.345 20.9636 221.429 20.9636C216.675 20.9636 212.658 22.3681 209.436 25.2128L209.434 25.2142L209.433 25.2157C206.261 28.0459 204.628 31.4095 204.628 35.2777C204.628 38.5018 205.577 41.2102 207.522 43.3326L207.527 43.3378L207.532 43.3429C209.441 45.354 211.727 46.837 214.378 47.789L214.383 47.7906L214.387 47.7921C216.933 48.6733 219.463 49.4894 221.977 50.2404L221.983 50.2421L221.989 50.2438C224.452 50.9387 226.526 51.8945 228.225 53.099L228.231 53.1038L228.238 53.1085C229.865 54.2122 230.613 55.5835 230.613 57.2651C230.613 59.3247 229.816 60.9986 228.179 62.3436L228.176 62.3459L228.173 62.3482C226.585 63.6769 224.215 64.4022 220.941 64.4022C219.57 64.4022 218.212 64.174 216.863 63.7142C215.483 63.2435 214.386 62.7213 213.555 62.1584C212.684 61.5359 211.859 60.8516 211.08 60.1051C210.68 59.6881 210.304 59.2608 209.946 58.8206C209.196 57.8989 207.804 57.7507 206.96 58.5868L203.509 62.0042C202.861 62.6463 202.756 63.6665 203.315 64.3878C204.005 65.2789 204.747 66.0965 205.629 66.8871L205.64 66.8969L205.651 66.9062C206.659 67.7466 207.828 68.5803 209.153 69.4085C210.532 70.2708 212.246 70.9957 214.277 71.5948L214.28 71.5958C216.374 72.2038 218.596 72.5054 220.941 72.5054C226.41 72.5054 230.859 71.1024 234.196 68.2126L234.197 68.2111L234.199 68.2095C237.524 65.2959 239.204 61.6302 239.204 57.2651C239.204 53.9514 238.26 51.1662 236.321 48.9786C234.443 46.8286 232.166 45.2863 229.498 44.3621C226.946 43.446 224.393 42.644 221.839 41.9563C219.367 41.2588 217.287 40.347 215.583 39.2318C213.993 38.1912 213.268 36.8873 213.268 35.2777C213.268 33.7054 213.957 32.2941 215.466 31.0213C216.947 29.7732 218.909 29.1156 221.429 29.1156C223.381 29.1156 225.203 29.5567 226.907 30.4387L226.912 30.4414L226.917 30.4439C228.316 31.1434 229.38 31.9228 230.395 32.955Z" fill="white"/>
<path fill-rule="evenodd" clip-rule="evenodd" d="M251.587 92.494C252.63 92.494 253.476 91.6483 253.476 90.605V67.4737C253.476 66.7472 254.377 66.3697 254.918 66.8553C254.929 66.8659 254.941 66.8765 254.953 66.8871L254.964 66.8969L254.975 66.9062C255.984 67.7466 257.152 68.5803 258.477 69.4085C259.85 70.2667 261.51 70.9914 263.444 71.5915L263.446 71.5921L263.448 71.5926C265.444 72.2015 267.506 72.5054 269.632 72.5054C276.019 72.5054 281.59 69.9593 286.31 64.9375L286.312 64.9355C291.037 59.8751 293.404 53.81 293.404 46.7833C293.404 39.7238 291.021 33.6419 286.262 28.5812C281.543 23.5282 275.99 20.9636 269.632 20.9636C267.503 20.9636 265.423 21.2847 263.395 21.9264C261.437 22.524 259.793 23.2309 258.481 24.0585C257.203 24.8323 256.009 25.7236 254.9 26.732L254.896 26.7361L254.891 26.7404C254.364 27.2348 253.476 26.8635 253.476 26.1406V23.8764C253.476 22.8331 252.63 21.9874 251.587 21.9874H246.774C245.73 21.9874 244.885 22.8331 244.885 23.8764V90.605C244.885 91.6483 245.73 92.494 246.774 92.494H251.587ZM280.102 34.2651C283.239 37.6817 284.813 41.8379 284.813 46.7833C284.813 51.6947 283.24 55.8529 280.1 59.3041L280.1 59.3044C276.974 62.7424 273.492 64.4022 269.632 64.4022C265.57 64.4022 261.856 62.6875 258.47 59.1458C255.13 55.5855 253.476 51.476 253.476 46.7833C253.476 42.0556 255.131 37.9469 258.47 34.4206C261.857 30.8451 265.572 29.1156 269.632 29.1156C273.489 29.1156 276.971 30.7892 280.097 34.2594L280.1 34.2623L280.102 34.2651Z" fill="white"/>
<path fill-rule="evenodd" clip-rule="evenodd" d="M330.01 37.8963C330.172 38.84 329.475 39.6815 328.53 39.8361L312.402 42.4744C307.77 43.2408 304.131 44.9052 301.571 47.5331C298.993 50.1472 297.732 53.5816 297.732 57.7526C297.732 61.6705 299.495 65.1148 302.886 68.0652L302.887 68.0665L302.889 68.0678C306.334 71.0353 310.558 72.5054 315.508 72.5054C317.499 72.5054 319.427 72.2355 321.289 71.6939C323.147 71.1632 324.679 70.5554 325.864 69.8585L325.871 69.8541L325.879 69.8495C327.024 69.1424 328.086 68.35 329.065 67.4721L329.066 67.4711C329.497 67.0832 330.202 67.3875 330.202 67.9672V69.6414C330.202 70.6847 331.047 71.5304 332.091 71.5304H336.903C337.947 71.5304 338.792 70.6847 338.792 69.6414V40.2504C338.792 34.8091 336.907 30.2108 333.139 26.5101C329.399 22.8051 324.671 20.9636 319.018 20.9636C316.791 20.9636 314.598 21.3011 312.442 21.9744C310.352 22.605 308.621 23.3464 307.271 24.2118C304.959 25.6934 302.791 27.5021 300.987 29.5928C300.373 30.3045 300.453 31.3621 301.118 32.0268L304.13 35.039C304.9 35.8086 306.152 35.7645 306.899 34.9726C308.458 33.3185 310.065 31.8911 312.222 30.7809L312.224 30.7799L312.226 30.7789C314.353 29.6693 316.613 29.1156 319.018 29.1156C322.342 29.1156 325.006 30.1547 327.079 32.1978C328.638 33.734 329.621 35.6226 330.01 37.8963ZM328.609 47.5107C329.438 47.3587 330.202 47.9952 330.202 48.8378V49.2697C330.202 53.8001 328.803 57.4205 326.048 60.206L326.046 60.2076L326.045 60.2092C323.319 62.996 319.83 64.4022 315.508 64.4022C312.505 64.4022 310.251 63.7304 308.651 62.4825C307.078 61.198 306.324 59.638 306.323 57.755C306.339 55.6959 307.022 54.0796 308.347 52.8333C309.697 51.5642 311.776 50.6184 314.681 50.0655L314.684 50.065L328.609 47.5107Z" fill="white"/>
<path d="M351.72 64.9944L351.722 64.9963C356.582 69.9897 362.411 72.5054 369.171 72.5054C371.595 72.5054 373.969 72.1348 376.291 71.3946L376.294 71.3935L376.298 71.3924C378.606 70.6339 380.518 69.816 382.015 68.9314L382.021 68.928L382.026 68.9244C384.653 67.3126 387.134 65.3279 389.167 62.9863C389.807 62.2483 389.695 61.1433 388.97 60.4888L385.567 57.4195C384.768 56.6989 383.535 56.7955 382.816 57.5961C381.056 59.5555 379.217 61.1776 376.737 62.4983C374.35 63.7695 371.831 64.4022 369.171 64.4022C364.827 64.4022 361.053 62.7346 357.815 59.3417C354.618 55.9259 353.015 51.7567 353.015 46.7833C353.015 41.7746 354.619 37.6065 357.815 34.2248C361.055 30.7982 364.829 29.1156 369.171 29.1156C373.801 29.1156 378.339 31.8971 382.159 35.9742C382.916 36.7826 384.199 36.8491 384.986 36.0696L388.504 32.5853C389.225 31.8716 389.256 30.7129 388.552 29.9832C386.009 27.3493 383.415 25.1771 379.965 23.486C376.631 21.8031 373.029 20.9636 369.171 20.9636C362.441 20.9636 356.612 23.4978 351.722 28.5215C346.859 33.5195 344.424 39.6065 344.424 46.7345C344.424 53.8624 346.858 59.9647 351.72 64.9944Z" fill="white"/>
<path fill-rule="evenodd" clip-rule="evenodd" d="M401.148 51.574C400.984 50.7852 401.617 50.0832 402.422 50.0852L438.035 50.1744C438.982 50.1767 439.785 49.4771 439.911 48.5384L440.28 45.8139V45.7595C440.28 38.6499 438.02 32.7208 433.471 28.0366C428.925 23.3223 423.252 20.9636 416.508 20.9636C409.965 20.9636 404.266 23.5039 399.445 28.5255C394.648 33.5242 392.248 39.61 392.248 46.7345C392.248 53.8624 394.683 59.9647 399.545 64.9944L399.547 64.9963C404.406 69.9897 410.235 72.5054 416.995 72.5054C419.482 72.5054 421.904 72.1356 424.258 71.3956L424.262 71.3946L424.265 71.3935C426.606 70.6352 428.535 69.8171 430.034 68.9314L430.036 68.93L430.039 68.9286C431.544 68.0255 432.934 67.004 434.208 65.8638L434.209 65.863C435.241 64.9374 436.166 63.9877 437.034 62.9571C437.639 62.2379 437.559 61.1806 436.894 60.5159L433.887 57.5088C433.114 56.736 431.854 56.7832 431.111 57.5851C429.31 59.5308 427.472 61.1903 424.959 62.4944C422.51 63.7651 419.86 64.4022 416.995 64.4022C412.757 64.4022 409.071 62.9104 405.903 59.8975C403.376 57.4704 401.798 54.7008 401.148 51.574ZM426.674 33.1327L426.675 33.1342L426.677 33.1357C428.936 35.2721 430.457 37.855 431.238 40.9051C431.444 41.7128 430.806 42.4635 429.972 42.4635H402.612C401.765 42.4635 401.125 41.691 401.363 40.879C402.195 38.05 403.767 35.5368 406.095 33.3301C409.069 30.5109 412.528 29.1156 416.508 29.1156C420.498 29.1156 423.871 30.4529 426.674 33.1327Z" fill="white"/>
<path d="M480.036 23.2956C479.784 22.5159 479.058 21.9875 478.239 21.9875H473.812C472.994 21.9875 472.268 22.5148 472.016 23.2934L461.774 54.8507C461.534 55.5923 460.487 55.5985 460.237 54.8598L449.569 23.2721C449.31 22.5044 448.59 21.9875 447.779 21.9875H441.802C440.876 21.9875 440.225 22.8996 440.527 23.7755L456.509 70.2557C456.771 71.0184 457.488 71.5305 458.295 71.5305H463.275C464.092 71.5305 464.816 71.0056 465.07 70.2295L475.236 39.1941C475.479 38.4511 476.53 38.4505 476.774 39.1932L486.982 70.2317C487.237 71.0067 487.96 71.5305 488.776 71.5305H493.709C494.515 71.5305 495.233 71.0184 495.495 70.2557L511.477 23.7755C511.778 22.8996 511.127 21.9875 510.201 21.9875H504.224C503.414 21.9875 502.694 22.5044 502.435 23.2721L491.77 54.8506C491.52 55.5897 490.472 55.5828 490.232 54.8405L480.036 23.2956Z" fill="white"/>
<path fill-rule="evenodd" clip-rule="evenodd" d="M520.451 51.574C520.287 50.7852 520.92 50.0832 521.725 50.0852L557.338 50.1744C558.285 50.1767 559.087 49.4771 559.214 48.5384L559.582 45.8139V45.7595C559.582 38.6489 557.322 32.719 552.772 28.0345C548.226 23.3216 542.554 20.9636 535.81 20.9636C529.268 20.9636 523.569 23.5039 518.748 28.5255C513.95 33.5242 511.551 39.61 511.551 46.7345C511.551 53.8624 513.985 59.9647 518.847 64.9944L518.849 64.9963C523.709 69.9897 529.538 72.5054 536.298 72.5054C538.785 72.5054 541.207 72.1356 543.561 71.3956L543.564 71.3946L543.568 71.3935C545.909 70.6352 547.838 69.8171 549.337 68.9314L549.339 68.93L549.341 68.9286C551.984 67.3431 554.349 65.3102 556.335 62.9562C556.942 62.2376 556.862 61.1806 556.197 60.5159L553.19 57.5088C552.417 56.736 551.157 56.7832 550.414 57.5851C548.613 59.5308 546.774 61.1903 544.262 62.4944C541.813 63.7651 539.163 64.4022 536.298 64.4022C532.059 64.4022 528.373 62.91 525.204 59.8961C522.678 57.4694 521.101 54.7002 520.451 51.574ZM545.976 33.1327L545.978 33.1342L545.98 33.1357C548.239 35.2721 549.76 37.855 550.54 40.9051C550.747 41.7128 550.109 42.4635 549.275 42.4635H521.914C521.068 42.4635 520.427 41.691 520.666 40.879C521.498 38.05 523.07 35.5368 525.398 33.3301C528.372 30.5109 531.831 29.1156 535.81 29.1156C539.8 29.1156 543.174 30.4529 545.976 33.1327Z" fill="white"/>
<path fill-rule="evenodd" clip-rule="evenodd" d="M575.487 26.7404C574.959 27.2348 574.071 26.8635 574.071 26.1405V1.88897C574.071 0.845719 573.225 0 572.182 0H567.369C566.326 0 565.48 0.84572 565.48 1.88897V69.6414C565.48 70.6847 566.326 71.5304 567.369 71.5304H572.182C573.225 71.5304 574.071 70.6847 574.071 69.6414V67.5004C574.071 66.7679 575.003 66.3981 575.549 66.8871L575.56 66.8969L575.571 66.9062C576.579 67.7466 577.748 68.5803 579.073 69.4085C580.446 70.2667 582.106 70.9914 584.04 71.5915L584.042 71.5921L584.044 71.5927C586.039 72.2015 588.102 72.5054 590.228 72.5054C596.615 72.5054 602.185 69.9593 606.906 64.9375L606.908 64.9355C611.633 59.8751 614 53.81 614 46.7833C614 39.7234 611.616 33.6411 606.857 28.5802C602.138 23.5279 596.585 20.9636 590.228 20.9636C588.098 20.9636 586.019 21.2847 583.991 21.9264C582.033 22.5239 580.389 23.2307 579.077 24.0581C577.799 24.832 576.605 25.7234 575.496 26.732L575.491 26.7361L575.487 26.7404ZM600.698 34.2651C603.835 37.6817 605.409 41.8379 605.409 46.7833C605.409 51.6948 603.836 55.8529 600.696 59.3041L600.695 59.3044C597.57 62.7424 594.088 64.4022 590.228 64.4022C586.166 64.4022 582.452 62.6876 579.066 59.1463C575.725 55.5859 574.071 51.4762 574.071 46.7833C574.071 42.0555 575.727 37.9468 579.066 34.4205C582.453 30.8451 586.167 29.1156 590.228 29.1156C594.085 29.1156 597.567 30.7892 600.693 34.2594L600.695 34.2623L600.698 34.2651Z" fill="white"/>
<path fill-rule="evenodd" clip-rule="evenodd" d="M82.6614 70.3368H82.6928V69.9826L82.7267 70.3368H82.7581C84.9507 70.3368 87.1399 70.7948 89.0831 71.7099C92.0016 73.0853 95.2547 73.8536 98.6898 73.8536C106.5 73.8536 114.931 70.2685 121.3 67.5592L122.953 66.8586C123.576 66.597 124.173 66.3488 124.743 66.1194C126.19 65.5365 127.334 65.5287 127.566 67.8656C127.919 71.413 127.828 74.8622 126.901 79.8408C126.816 80.2838 127.252 80.6836 127.711 80.6836H129.857C130.222 80.6836 130.619 80.4833 130.804 80.1597C132.872 75.4568 134.637 69.6267 134.456 63.634C134.291 58.1692 133.427 55.1881 128.125 57.3043L122.007 59.1935C120.541 59.547 120.544 58.2768 120.545 57.2753C120.545 56.7694 120.569 56.2604 120.507 55.7569C120.41 53.2723 120.399 52.962 124.893 50.2975L133.854 44.817C134.488 44.4014 135.339 44.5271 135.78 45.1453C138.762 48.6801 141.853 54.2636 142.218 60.8564C142.679 69.1955 141.538 73.7295 140.103 79.4307L140.016 79.7803C139.961 80.2595 140.338 80.6789 140.819 80.6789H143.291C143.613 80.6789 143.919 80.4739 144.038 80.1738C146.689 74.4474 149.261 67.4147 148.857 58.8502C148.363 48.3981 144.372 39.0356 138.215 34.1811C136.509 32.7742 134.807 32.6737 132.994 33.9305L122.992 39.7669C119.716 41.7558 118.774 40.6781 117.853 38.8463C117.655 38.4527 117.448 38.0647 117.232 37.6813C116.394 36.181 115.556 34.5683 117.665 33.0633C118.541 32.4372 121.274 30.5606 124.322 28.4657L124.374 28.4303L124.619 28.2622L124.854 28.102L124.982 28.0148L124.994 28.0054C129.108 25.183 133.584 22.1116 134.776 21.2436C136.928 19.6765 138.846 18.8172 140.21 20.1376C145.876 25.626 154.099 34.5047 157.064 46.6315C159.772 57.7089 157.166 68.0376 154.755 77.5871L154.399 79.0018L154.228 79.686C154.106 80.1919 154.487 80.686 155.006 80.686H157.334C157.617 80.686 157.881 80.5289 158.024 80.283C163.688 69.2795 167.175 56.7513 164.506 42.2287C161.681 26.8609 150.193 14.467 143.341 8.29127L143.256 8.2135C141.144 6.31019 139.178 4.5365 134.776 7.57016C130.315 10.6447 108.127 25.4249 106.044 26.71C103.961 27.9952 101.591 29.0069 99.4365 28.8804C93.906 28.556 89.2329 28.3934 82.7518 28.3934H82.7267L82.6928 28.7477V28.3934H82.6677C76.1866 28.3934 71.5135 28.556 65.9831 28.8804C63.8281 29.0069 61.4589 27.9952 59.3757 26.71C57.2925 25.4249 35.1048 10.6447 30.6435 7.57016C26.2415 4.5365 24.2751 6.31019 22.164 8.2135L22.0784 8.29127C15.2263 14.467 3.73846 26.8609 0.913558 42.2287C-1.75591 56.7513 1.73178 69.2795 7.39541 80.283C7.53855 80.5289 7.80209 80.686 8.08563 80.686H10.4136C10.9324 80.686 11.314 80.1919 11.1917 79.686C11.0183 78.9909 10.8417 78.291 10.6641 77.5871C8.25391 68.0376 5.64724 57.7089 8.35545 46.6315C11.3202 34.5047 19.5434 25.626 25.2095 20.1376C26.5731 18.8172 28.4912 19.6765 30.6435 21.2436C31.837 22.1124 36.3204 25.1893 40.4375 28.0148L40.5625 28.0996L41.1283 28.4885L41.3643 28.6511L41.447 28.7076C44.3531 30.7036 46.9121 32.4616 47.7548 33.0633C49.8631 34.5683 49.0258 36.181 48.1878 37.6813C47.9716 38.0647 47.7642 38.4527 47.5666 38.8463C46.6453 40.6781 45.7033 41.7558 42.4275 39.7669L32.4255 33.9305C30.6125 32.6737 28.9101 32.7742 27.2049 34.1811C21.0474 39.0356 17.0567 48.3981 16.5629 58.8502C16.1582 67.4147 18.73 74.4474 21.3819 80.1738C21.5006 80.4739 21.807 80.6789 22.1286 80.6789H24.6009C25.0817 80.6789 25.4589 80.2595 25.404 79.7803L25.3161 79.4307C23.8812 73.7295 22.7404 69.1955 23.2016 60.8564C23.5662 54.2636 26.6574 48.6801 29.6395 45.1453C30.0807 44.5271 30.9317 44.4014 31.5659 44.817L40.5263 50.2975C45.0206 52.962 45.0096 53.2723 44.9123 55.7569C44.864 56.1496 44.8682 56.5463 44.8723 56.9414L44.8747 57.2753C44.8751 58.2768 44.8782 59.547 43.4127 59.1935L37.2947 57.3043C31.9926 55.1881 31.1289 58.1692 30.9635 63.634C30.7821 69.6267 32.5475 75.4568 34.6154 80.1597C34.8004 80.4833 35.1974 80.6836 35.5629 80.6836H37.7089C38.1673 80.6836 38.6034 80.2838 38.5183 79.8408C37.5917 74.8622 37.5007 71.413 37.8532 67.8656C38.0854 65.5287 39.2295 65.5365 40.6769 66.1194C41.7126 66.5365 42.8408 67.0157 44.0432 67.5262L44.1193 67.5592C50.4887 70.2685 58.9195 73.8536 66.7298 73.8536C70.1648 73.8536 73.4179 73.0853 76.3364 71.7099C78.2797 70.7948 80.4688 70.3368 82.6614 70.3368ZM74.6245 55.3303C75.06 55.1247 76.1333 55.7673 75.8976 56.1877C74.0061 59.561 70.3997 61.8407 66.2617 61.8407C60.1625 61.8407 55.2181 56.8888 55.2181 50.7806C55.2181 44.6724 60.1625 39.7205 66.2617 39.7205C70.3997 39.7205 74.0061 42.0002 75.8976 45.3735C76.1333 45.7939 75.06 46.4365 74.6245 46.2309C73.9758 45.9246 73.251 45.7533 72.4863 45.7533C69.7139 45.7533 67.4665 48.0038 67.4665 50.7806C67.4665 53.5574 69.7139 55.8079 72.4863 55.8079C73.251 55.8079 73.9758 55.6366 74.6245 55.3303ZM98.991 61.8407C103.129 61.8407 106.735 59.561 108.627 56.1877C108.863 55.7673 107.789 55.1247 107.354 55.3303C106.705 55.6366 105.98 55.8079 105.216 55.8079C102.443 55.8079 100.196 53.5574 100.196 50.7806C100.196 48.0038 102.443 45.7533 105.216 45.7533C105.98 45.7533 106.705 45.9246 107.354 46.2309C107.789 46.4365 108.863 45.7939 108.627 45.3735C106.735 42.0002 103.129 39.7205 98.991 39.7205C92.8917 39.7205 87.9473 44.6724 87.9473 50.7806C87.9473 56.8888 92.8917 61.8407 98.991 61.8407Z" fill="#3393FF"/>
</svg>
