<?xml version="1.0" encoding="utf-8"?>
<!DOCTYPE svg PUBLIC "-//W3C//DTD SVG 1.1//EN" "http://www.w3.org/Graphics/SVG/1.1/DTD/svg11.dtd">
<svg version="1.1" id="YDNS" xmlns="http://www.w3.org/2000/svg" xmlns:xlink="http://www.w3.org/1999/xlink" x="0px" y="0px"
	 viewBox="0 0 120 48" enable-background="new 0 0 120 48" xml:space="preserve">
<g>
	<path fill="#E15241" d="M26.7,11.4h6.1l-8.7,16.2v9.7h-5.4v-9.7l-9-16.2h6.4l5.4,11.3L26.7,11.4z"/>
	<path fill="#CCCCCC" d="M51.2,11.9c1.8,0.6,3.3,1.7,4.4,3.3c0.9,1.3,1.5,2.7,1.8,4.2s0.5,2.9,0.5,4.3c0,3.4-0.7,6.4-2.1,8.8
		c-1.9,3.2-4.8,4.8-8.7,4.8H36V11.4h11.2C48.7,11.4,50.1,11.6,51.2,11.9z M41.2,15.9v16.9h5c2.6,0,4.3-1.3,5.4-3.8
		c0.6-1.4,0.8-3,0.8-4.9c0-2.6-0.4-4.7-1.2-6.1c-0.8-1.4-2.5-2.1-4.9-2.1H41.2z"/>
	<path fill="#CCCCCC" d="M61.9,11.4h5.7l10.3,18.1V11.4h5v25.9h-5.4L66.9,18.9v18.4h-5V11.4z"/>
	<path fill="#CCCCCC" d="M91.9,29.3c0.2,1.2,0.5,2.1,1,2.7c0.9,1.1,2.4,1.6,4.6,1.6c1.3,0,2.4-0.1,3.2-0.4c1.5-0.5,2.3-1.5,2.3-3
		c0-0.9-0.4-1.5-1.1-2c-0.8-0.5-2-0.9-3.6-1.2l-2.8-0.6c-2.8-0.6-4.7-1.3-5.7-2c-1.7-1.2-2.6-3.1-2.6-5.6c0-2.3,0.9-4.2,2.6-5.8
		c1.7-1.5,4.2-2.3,7.5-2.3c2.8,0,5.1,0.7,7.1,2.2c2,1.4,3,3.5,3.1,6.3h-5.2c-0.1-1.6-0.8-2.7-2.1-3.3c-0.9-0.4-1.9-0.7-3.2-0.7
		c-1.4,0-2.6,0.3-3.4,0.8s-1.3,1.3-1.3,2.4c0,0.9,0.4,1.6,1.3,2.1c0.5,0.3,1.7,0.7,3.4,1.1l4.5,1.1c2,0.5,3.5,1.1,4.5,1.9
		c1.5,1.2,2.3,3,2.3,5.3c0,2.4-0.9,4.3-2.7,5.9s-4.4,2.3-7.8,2.3c-3.4,0-6.1-0.8-8-2.3c-2-1.5-2.9-3.7-2.9-6.4H91.9z"/>
</g>
</svg>
